<svg id="Livello_1" data-name="Livello 1" xmlns="http://www.w3.org/2000/svg" viewBox="0 0 87.07 16.98"><defs><style>.cls-1{fill:#fff;}</style></defs><path class="cls-1" d="M31.74.59l-5.93,8,6.48,8H28L21.56,8.66H21.5v7.92H18V.6H21.5V8.65h.06L27.74.59Z"/><path class="cls-1" d="M37.09,16.57H33.46V.6h3.63Z"/><path class="cls-1" d="M52.85,3a7.2,7.2,0,0,0-6-2.95h-1a7.17,7.17,0,0,0-6,3A7.58,7.58,0,0,0,38.6,7v9.55h3.56V8.11c0-1.25,0-4.63,4-4.63h.32c4,0,4,3.38,4,4.63v8.46h3.56V7A7.58,7.58,0,0,0,52.85,3Z"/><path class="cls-1" d="M86.66.44l-5.94,8.3,6.35,7.83H82.91l-4.73-5.7-4.52,5.7H69.53l6.33-7.83L69.77.44h4.3l4.16,5.74L82.36.44Z"/><path class="cls-1" d="M16.49,8.27A8.25,8.25,0,1,0,0,8.48,8.42,8.42,0,0,0,8.21,17,8.22,8.22,0,0,0,16,11.5h-3a5.16,5.16,0,0,1-4.6,2.71A5.47,5.47,0,0,1,3,9.82H16.4C16.43,9.61,16.49,8.8,16.49,8.27ZM8.24,2.77A5.27,5.27,0,0,1,13.4,7H3.09A5.26,5.26,0,0,1,8.24,2.77Z"/><path class="cls-1" d="M71.53,8.27A8.25,8.25,0,1,0,55,8.48,8.42,8.42,0,0,0,63.26,17,8.21,8.21,0,0,0,71,11.5H68a5.15,5.15,0,0,1-4.6,2.71,5.47,5.47,0,0,1-5.3-4.39H71.44C71.47,9.61,71.53,8.8,71.53,8.27Zm-8.25-5.5A5.27,5.27,0,0,1,68.44,7H58.13A5.26,5.26,0,0,1,63.28,2.77Z"/></svg>