<?xml version="1.0" encoding="utf-8"?>
<svg version="1.1" xmlns="http://www.w3.org/2000/svg" x="0px" y="0px" viewBox="190 100 280 70">
<path fill="#FFFFFF" d="M203.06,160.74h29.13v-9.35h-22.5v-46.33h-9.92v46.33v4.3L203.06,160.74z M268.54,142.87
	c0,3.69-1.3,9.89-10.04,10h-3.06c-3.69,0-9.91-1.31-10-10v-20.05c0-3.69,1.3-9.91,10-10h3.1c3.7,0,9.91,1.31,10,10V142.87z
	 M274.87,153.2c2.42-4.2,2.68-8.63,2.68-10.33v-20.1c-0.1-9.4-4.77-14.04-8.67-16.28c-4.2-2.41-8.63-2.67-10.33-2.67h-3.15
	c-9.4,0.1-14.04,4.77-16.28,8.67c-2.41,4.2-2.67,8.63-2.67,10.33v20.1c0.1,9.4,4.77,14.04,8.67,16.28
	c4.2,2.41,8.63,2.67,10.33,2.67h3.11h0.02C267.98,161.76,272.63,157.1,274.87,153.2 M308.23,132.93l-18.1-27.87h-11.11l18.1,27.87
	l-18.1,27.87h11.11L308.23,132.93z M310.72,129.1l15.61-24.04h-11.11l-10.06,15.49L310.72,129.1z M315.22,160.8h11.11l-15.61-24.04
	l-5.55,8.55L315.22,160.8z M359.9,142.87c0,3.69-1.31,9.89-10.04,10h-3.06c-3.7,0-9.91-1.31-10-10v-20.05c0-3.69,1.31-9.91,10-10
	h3.1c3.69,0,9.91,1.31,10,10V142.87z M366.23,153.2c2.42-4.2,2.68-8.63,2.68-10.33v-20.1c-0.1-9.4-4.77-14.04-8.67-16.28
	c-4.2-2.41-8.63-2.67-10.33-2.67h-3.15c-9.4,0.1-14.04,4.77-16.28,8.67c-2.41,4.2-2.67,8.63-2.67,10.33l0,20.1
	c0.1,9.4,4.77,14.04,8.67,16.28c4.2,2.41,8.63,2.67,10.33,2.67h3.11h0.02C359.34,161.76,363.99,157.1,366.23,153.2 M418.43,160.71
	h1.14v-55.65h-9.07v40.08l-20.42-40.08h-2.98h-6.95h-2.13v55.65h9.07v-42.02l21.41,42.02h1.99H418.43z M439.32,151.39v-15.37h14.48
	v-9.35h-14.48v-7.26l-3.27-5.04h6.92h18.85v-9.35h-32.42v0.04v9.32v37.02v4.21l3.34,5.14h29.08v-9.35H439.32z"/>
</svg>
