<?xml version="1.0" encoding="utf-8"?>
<!-- Generator: Adobe Illustrator 23.0.6, SVG Export Plug-In . SVG Version: 6.00 Build 0)  -->
<svg version="1.1" xmlns="http://www.w3.org/2000/svg" xmlns:xlink="http://www.w3.org/1999/xlink" x="0px" y="0px"
	 viewBox="0 0 841.89 297.64" style="enable-background:new 0 0 841.89 297.64;" xml:space="preserve">
<style type="text/css">
	.st0{display:none;}
	.st1{display:inline;}
	.st2{fill:#95C15C;}
	.st3{fill:#94CB60;}
	.st4{display:inline;fill:#94CB60;}
	.st5{fill:#FFFFFF;}
	.st6{display:inline;fill:#FFFFFF;}
</style>
<g id="Slogan_Green_CMYK" class="st0">
	<g class="st1">
		<path class="st2" d="M508.82,122.51c0-4.57,2.97-8.26,8.24-8.26c2.18,0,4.66,0.92,6.44,3.08l-2.77,2.34
			c-0.76-0.92-2.09-1.85-3.67-1.85c-2.34,0-4.3,1.73-4.3,4.68c0,2.52,1.71,4.55,4.3,4.55c1.44,0,2.81-0.77,3.67-1.82l2.77,2.36
			c-1.37,1.71-3.6,3.06-6.44,3.06C512.65,130.66,508.82,127.8,508.82,122.51z"/>
		<path class="st2" d="M532.18,119.25v3.78c-0.32-0.02-0.63-0.02-0.81-0.02c-1.67,0-2.52,1.06-2.52,2.5v4.95h-3.53v-11.01h3.53v1.49
			h0.02c0.83-1.12,1.98-1.71,3.2-1.71C532.11,119.23,532.15,119.23,532.18,119.25z"/>
		<path class="st2" d="M544.03,125.89h-7.47c0.25,1.24,1.3,1.91,2.59,1.91c1.01,0,1.91-0.45,2.66-1.33l1.87,2.09
			c-0.92,1.17-2.61,2.09-4.91,2.09c-3.26,0-5.72-2.3-5.72-5.72c0-3.33,2.36-5.72,5.58-5.72s5.49,2.34,5.49,5.63
			C544.12,125.17,544.08,125.66,544.03,125.89z M536.56,123.82l4.12-0.02c-0.22-1.08-0.95-1.76-2-1.76S536.79,122.67,536.56,123.82z
			"/>
		<path class="st2" d="M557.15,119.45v11.01h-3.33v-1.19h-0.05c-0.72,0.92-1.75,1.4-3.06,1.4c-3.04,0-5.2-2.3-5.2-5.69
			c0-3.38,2.18-5.74,5.04-5.74c1.19,0,2.25,0.47,3.04,1.4h0.02v-1.17H557.15z M553.78,124.97c0-1.51-1.01-2.61-2.32-2.61
			c-1.35,0-2.36,1.06-2.36,2.61c0,1.55,0.97,2.61,2.34,2.61C552.72,127.58,553.78,126.54,553.78,124.97z"/>
		<path class="st2" d="M559.96,126.99v-4.68h-1.24v-2.86h1.24v-3.53l3.53-0.36v3.89h2.66v2.86h-2.66v4.03
			c0,0.72,0.16,1.26,0.83,1.26c0.23,0,0.7-0.09,1.08-0.29l0.88,2.61c-0.76,0.43-1.55,0.74-3.08,0.74
			C561.31,130.66,559.96,129.49,559.96,126.99z"/>
		<path class="st2" d="M578.01,125.89h-7.47c0.25,1.24,1.3,1.91,2.59,1.91c1.01,0,1.91-0.45,2.66-1.33l1.87,2.09
			c-0.92,1.17-2.61,2.09-4.91,2.09c-3.26,0-5.72-2.3-5.72-5.72c0-3.33,2.36-5.72,5.58-5.72s5.49,2.34,5.49,5.63
			C578.1,125.17,578.05,125.66,578.01,125.89z M570.54,123.82l4.12-0.02c-0.22-1.08-0.95-1.76-2-1.76S570.76,122.67,570.54,123.82z"
			/>
		<path class="st2" d="M518.59,148.6h-5.6l-0.92,2.86h-3.94l5.85-15.98h3.6l5.9,15.98h-3.94L518.59,148.6z M517.55,145.4l-1.76-5.38
			h-0.04l-1.73,5.38H517.55z"/>
		<path class="st2" d="M535.21,140.45v11.01h-3.53v-1.24h-0.07c-0.79,0.95-1.89,1.44-3.11,1.44c-2.29,0-3.96-1.19-3.96-4.68v-6.53
			h3.51v5.65c0,1.78,0.5,2.43,1.69,2.43c1.06,0,1.94-0.83,1.94-2.63v-5.45H535.21z"/>
		<path class="st2" d="M538.02,147.99v-4.68h-1.24v-2.86h1.24v-3.53l3.53-0.36v3.89h2.66v2.86h-2.66v4.03
			c0,0.72,0.16,1.26,0.83,1.26c0.23,0,0.7-0.09,1.08-0.29l0.88,2.61c-0.76,0.43-1.55,0.74-3.08,0.74
			C539.37,151.66,538.02,150.49,538.02,147.99z"/>
		<path class="st2" d="M545.09,145.97c0-3.35,2.41-5.74,5.94-5.74c3.49,0,5.94,2.34,5.94,5.74c0,3.38-2.45,5.72-5.94,5.72
			C547.5,151.68,545.09,149.3,545.09,145.97z M553.42,145.97c0-1.53-1.01-2.59-2.39-2.59c-1.42,0-2.39,1.08-2.39,2.59
			c0,1.46,0.99,2.59,2.39,2.59C552.38,148.56,553.42,147.47,553.42,145.97z"/>
		<path class="st2" d="M576.44,145.04v6.41h-3.51v-5.6c0-1.44-0.41-2.48-1.6-2.48c-1.04,0-1.85,0.86-1.85,2.57v5.51h-3.51v-5.6
			c0-1.44-0.41-2.48-1.6-2.48c-1.1,0-1.89,0.86-1.89,2.57v5.51h-3.53v-11.01h3.53v1.24h0.04c0.83-0.97,1.96-1.46,3.08-1.46
			c1.35,0,2.48,0.47,3.15,1.6h0.04c0.9-1.06,2.21-1.6,3.71-1.6C574.84,140.23,576.44,141.58,576.44,145.04z"/>
		<path class="st2" d="M589.91,140.45v11.01h-3.33v-1.19h-0.05c-0.72,0.92-1.75,1.4-3.06,1.4c-3.04,0-5.2-2.3-5.2-5.69
			c0-3.38,2.18-5.74,5.04-5.74c1.19,0,2.25,0.47,3.04,1.4h0.02v-1.17H589.91z M586.53,145.97c0-1.51-1.01-2.61-2.32-2.61
			c-1.35,0-2.36,1.06-2.36,2.61c0,1.55,0.97,2.61,2.34,2.61C585.48,148.58,586.53,147.54,586.53,145.97z"/>
		<path class="st2" d="M592.72,147.99v-4.68h-1.24v-2.86h1.24v-3.53l3.53-0.36v3.89h2.66v2.86h-2.66v4.03
			c0,0.72,0.16,1.26,0.83,1.26c0.23,0,0.7-0.09,1.08-0.29l0.88,2.61c-0.76,0.43-1.55,0.74-3.08,0.74
			C594.07,151.66,592.72,150.49,592.72,147.99z"/>
		<path class="st2" d="M600.41,137.08c0-1.22,0.99-2.05,2.21-2.05c1.22,0,2.21,0.83,2.21,2.05s-0.99,2.05-2.21,2.05
			C601.4,139.13,600.41,138.29,600.41,137.08z M600.86,140.45h3.49v11.01h-3.49V140.45z"/>
		<path class="st2" d="M606.51,145.97c0-3.35,2.41-5.74,5.94-5.74c3.49,0,5.94,2.34,5.94,5.74c0,3.38-2.45,5.72-5.94,5.72
			C608.92,151.68,606.51,149.3,606.51,145.97z M614.84,145.97c0-1.53-1.01-2.59-2.39-2.59c-1.42,0-2.39,1.08-2.39,2.59
			c0,1.46,0.99,2.59,2.39,2.59C613.8,148.56,614.84,147.47,614.84,145.97z"/>
		<path class="st2" d="M631.2,144.86v6.59h-3.53v-5.74c0-1.8-0.56-2.34-1.76-2.34c-1.19,0-2,0.83-2,2.54v5.54h-3.53v-11.01h3.53
			v1.33c0.88-1.01,2.07-1.55,3.33-1.55C629.53,140.23,631.2,141.38,631.2,144.86z"/>
	</g>
</g>
<g id="Logo_Green_CMYK">
	<path class="st2" d="M203.06,160.74h29.13v-9.35h-22.5v-46.33h-9.92v46.33v4.3L203.06,160.74z M268.54,142.87
		c0,3.69-1.3,9.89-10.04,10h-3.06c-3.69,0-9.91-1.31-10-10v-20.05c0-3.69,1.3-9.91,10-10h3.1c3.7,0,9.91,1.31,10,10V142.87z
		 M274.87,153.2c2.42-4.2,2.68-8.63,2.68-10.33v-20.1c-0.1-9.4-4.77-14.04-8.67-16.28c-4.2-2.41-8.63-2.67-10.33-2.67h-3.15
		c-9.4,0.1-14.04,4.77-16.28,8.67c-2.41,4.2-2.67,8.63-2.67,10.33v20.1c0.1,9.4,4.77,14.04,8.67,16.28
		c4.2,2.41,8.63,2.67,10.33,2.67h3.11h0.02C267.98,161.76,272.63,157.1,274.87,153.2 M308.23,132.93l-18.1-27.87h-11.11l18.1,27.87
		l-18.1,27.87h11.11L308.23,132.93z M310.72,129.1l15.61-24.04h-11.11l-10.06,15.49L310.72,129.1z M315.22,160.8h11.11l-15.61-24.04
		l-5.55,8.55L315.22,160.8z M359.9,142.87c0,3.69-1.31,9.89-10.04,10h-3.06c-3.7,0-9.91-1.31-10-10v-20.05c0-3.69,1.31-9.91,10-10
		h3.1c3.69,0,9.91,1.31,10,10V142.87z M366.23,153.2c2.42-4.2,2.68-8.63,2.68-10.33v-20.1c-0.1-9.4-4.77-14.04-8.67-16.28
		c-4.2-2.41-8.63-2.67-10.33-2.67h-3.15c-9.4,0.1-14.04,4.77-16.28,8.67c-2.41,4.2-2.67,8.63-2.67,10.33l0,20.1
		c0.1,9.4,4.77,14.04,8.67,16.28c4.2,2.41,8.63,2.67,10.33,2.67h3.11h0.02C359.34,161.76,363.99,157.1,366.23,153.2 M418.43,160.71
		h1.14v-55.65h-9.07v40.08l-20.42-40.08h-2.98h-6.95h-2.13v55.65h9.07v-42.02l21.41,42.02h1.99H418.43z M439.32,151.39v-15.37h14.48
		v-9.35h-14.48v-7.26l-3.27-5.04h6.92h18.85v-9.35h-32.42v0.04v9.32v37.02v4.21l3.34,5.14h29.08v-9.35H439.32z"/>
</g>
<g id="Slogan_Green_PANTONE_C" class="st0">
	<g class="st1">
		<path class="st3" d="M508.82,122.51c0-4.57,2.97-8.26,8.24-8.26c2.18,0,4.66,0.92,6.44,3.08l-2.77,2.34
			c-0.76-0.92-2.09-1.85-3.67-1.85c-2.34,0-4.3,1.73-4.3,4.68c0,2.52,1.71,4.55,4.3,4.55c1.44,0,2.81-0.77,3.67-1.82l2.77,2.36
			c-1.37,1.71-3.6,3.06-6.44,3.06C512.65,130.66,508.82,127.8,508.82,122.51z"/>
		<path class="st3" d="M532.18,119.25v3.78c-0.32-0.02-0.63-0.02-0.81-0.02c-1.67,0-2.52,1.06-2.52,2.5v4.95h-3.53v-11.01h3.53v1.49
			h0.02c0.83-1.12,1.98-1.71,3.2-1.71C532.11,119.23,532.15,119.23,532.18,119.25z"/>
		<path class="st3" d="M544.03,125.89h-7.47c0.25,1.24,1.3,1.91,2.59,1.91c1.01,0,1.91-0.45,2.66-1.33l1.87,2.09
			c-0.92,1.17-2.61,2.09-4.91,2.09c-3.26,0-5.72-2.3-5.72-5.72c0-3.33,2.36-5.72,5.58-5.72s5.49,2.34,5.49,5.63
			C544.12,125.17,544.08,125.66,544.03,125.89z M536.56,123.82l4.12-0.02c-0.22-1.08-0.95-1.76-2-1.76S536.79,122.67,536.56,123.82z
			"/>
		<path class="st3" d="M557.15,119.45v11.01h-3.33v-1.19h-0.05c-0.72,0.92-1.75,1.4-3.06,1.4c-3.04,0-5.2-2.3-5.2-5.69
			c0-3.38,2.18-5.74,5.04-5.74c1.19,0,2.25,0.47,3.04,1.4h0.02v-1.17H557.15z M553.78,124.97c0-1.51-1.01-2.61-2.32-2.61
			c-1.35,0-2.36,1.06-2.36,2.61c0,1.55,0.97,2.61,2.34,2.61C552.72,127.58,553.78,126.54,553.78,124.97z"/>
		<path class="st3" d="M559.96,126.99v-4.68h-1.24v-2.86h1.24v-3.53l3.53-0.36v3.89h2.66v2.86h-2.66v4.03
			c0,0.72,0.16,1.26,0.83,1.26c0.23,0,0.7-0.09,1.08-0.29l0.88,2.61c-0.76,0.43-1.55,0.74-3.08,0.74
			C561.31,130.66,559.96,129.49,559.96,126.99z"/>
		<path class="st3" d="M578.01,125.89h-7.47c0.25,1.24,1.3,1.91,2.59,1.91c1.01,0,1.91-0.45,2.66-1.33l1.87,2.09
			c-0.92,1.17-2.61,2.09-4.91,2.09c-3.26,0-5.72-2.3-5.72-5.72c0-3.33,2.36-5.72,5.58-5.72s5.49,2.34,5.49,5.63
			C578.1,125.17,578.05,125.66,578.01,125.89z M570.54,123.82l4.12-0.02c-0.22-1.08-0.95-1.76-2-1.76S570.76,122.67,570.54,123.82z"
			/>
		<path class="st3" d="M518.59,148.6h-5.6l-0.92,2.86h-3.94l5.85-15.98h3.6l5.9,15.98h-3.94L518.59,148.6z M517.55,145.4l-1.76-5.38
			h-0.04l-1.73,5.38H517.55z"/>
		<path class="st3" d="M535.21,140.45v11.01h-3.53v-1.24h-0.07c-0.79,0.95-1.89,1.44-3.11,1.44c-2.29,0-3.96-1.19-3.96-4.68v-6.53
			h3.51v5.65c0,1.78,0.5,2.43,1.69,2.43c1.06,0,1.94-0.83,1.94-2.63v-5.45H535.21z"/>
		<path class="st3" d="M538.02,147.99v-4.68h-1.24v-2.86h1.24v-3.53l3.53-0.36v3.89h2.66v2.86h-2.66v4.03
			c0,0.72,0.16,1.26,0.83,1.26c0.23,0,0.7-0.09,1.08-0.29l0.88,2.61c-0.76,0.43-1.55,0.74-3.08,0.74
			C539.37,151.66,538.02,150.49,538.02,147.99z"/>
		<path class="st3" d="M545.09,145.97c0-3.35,2.41-5.74,5.94-5.74c3.49,0,5.94,2.34,5.94,5.74c0,3.38-2.45,5.72-5.94,5.72
			C547.5,151.68,545.09,149.3,545.09,145.97z M553.42,145.97c0-1.53-1.01-2.59-2.39-2.59c-1.42,0-2.39,1.08-2.39,2.59
			c0,1.46,0.99,2.59,2.39,2.59C552.38,148.56,553.42,147.47,553.42,145.97z"/>
		<path class="st3" d="M576.44,145.04v6.41h-3.51v-5.6c0-1.44-0.41-2.48-1.6-2.48c-1.04,0-1.85,0.86-1.85,2.57v5.51h-3.51v-5.6
			c0-1.44-0.41-2.48-1.6-2.48c-1.1,0-1.89,0.86-1.89,2.57v5.51h-3.53v-11.01h3.53v1.24h0.04c0.83-0.97,1.96-1.46,3.08-1.46
			c1.35,0,2.48,0.47,3.15,1.6h0.04c0.9-1.06,2.21-1.6,3.71-1.6C574.84,140.23,576.44,141.58,576.44,145.04z"/>
		<path class="st3" d="M589.91,140.45v11.01h-3.33v-1.19h-0.05c-0.72,0.92-1.75,1.4-3.06,1.4c-3.04,0-5.2-2.3-5.2-5.69
			c0-3.38,2.18-5.74,5.04-5.74c1.19,0,2.25,0.47,3.04,1.4h0.02v-1.17H589.91z M586.53,145.97c0-1.51-1.01-2.61-2.32-2.61
			c-1.35,0-2.36,1.06-2.36,2.61c0,1.55,0.97,2.61,2.34,2.61C585.48,148.58,586.53,147.54,586.53,145.97z"/>
		<path class="st3" d="M592.72,147.99v-4.68h-1.24v-2.86h1.24v-3.53l3.53-0.36v3.89h2.66v2.86h-2.66v4.03
			c0,0.72,0.16,1.26,0.83,1.26c0.23,0,0.7-0.09,1.08-0.29l0.88,2.61c-0.76,0.43-1.55,0.74-3.08,0.74
			C594.07,151.66,592.72,150.49,592.72,147.99z"/>
		<path class="st3" d="M600.41,137.08c0-1.22,0.99-2.05,2.21-2.05c1.22,0,2.21,0.83,2.21,2.05s-0.99,2.05-2.21,2.05
			C601.4,139.13,600.41,138.29,600.41,137.08z M600.86,140.45h3.49v11.01h-3.49V140.45z"/>
		<path class="st3" d="M606.51,145.97c0-3.35,2.41-5.74,5.94-5.74c3.49,0,5.94,2.34,5.94,5.74c0,3.38-2.45,5.72-5.94,5.72
			C608.92,151.68,606.51,149.3,606.51,145.97z M614.84,145.97c0-1.53-1.01-2.59-2.39-2.59c-1.42,0-2.39,1.08-2.39,2.59
			c0,1.46,0.99,2.59,2.39,2.59C613.8,148.56,614.84,147.47,614.84,145.97z"/>
		<path class="st3" d="M631.2,144.86v6.59h-3.53v-5.74c0-1.8-0.56-2.34-1.76-2.34c-1.19,0-2,0.83-2,2.54v5.54h-3.53v-11.01h3.53
			v1.33c0.88-1.01,2.07-1.55,3.33-1.55C629.53,140.23,631.2,141.38,631.2,144.86z"/>
	</g>
</g>
<g id="Logo_Green_PANTONE_C" class="st0">
	<path class="st4" d="M203.06,160.74h29.13v-9.35h-22.5v-46.33h-9.92v46.33v4.3L203.06,160.74z M268.54,142.87
		c0,3.69-1.3,9.89-10.04,10h-3.06c-3.69,0-9.91-1.31-10-10v-20.05c0-3.69,1.3-9.91,10-10h3.1c3.7,0,9.91,1.31,10,10V142.87z
		 M274.87,153.2c2.42-4.2,2.68-8.63,2.68-10.33v-20.1c-0.1-9.4-4.77-14.04-8.67-16.28c-4.2-2.41-8.63-2.67-10.33-2.67h-3.15
		c-9.4,0.1-14.04,4.77-16.28,8.67c-2.41,4.2-2.67,8.63-2.67,10.33v20.1c0.1,9.4,4.77,14.04,8.67,16.28
		c4.2,2.41,8.63,2.67,10.33,2.67h3.11h0.02C267.98,161.76,272.63,157.1,274.87,153.2 M308.23,132.93l-18.1-27.87h-11.11l18.1,27.87
		l-18.1,27.87h11.11L308.23,132.93z M310.72,129.1l15.61-24.04h-11.11l-10.06,15.49L310.72,129.1z M315.22,160.8h11.11l-15.61-24.04
		l-5.55,8.55L315.22,160.8z M359.9,142.87c0,3.69-1.31,9.89-10.04,10h-3.06c-3.7,0-9.91-1.31-10-10v-20.05c0-3.69,1.31-9.91,10-10
		h3.1c3.69,0,9.91,1.31,10,10V142.87z M366.23,153.2c2.42-4.2,2.68-8.63,2.68-10.33v-20.1c-0.1-9.4-4.77-14.04-8.67-16.28
		c-4.2-2.41-8.63-2.67-10.33-2.67h-3.15c-9.4,0.1-14.04,4.77-16.28,8.67c-2.41,4.2-2.67,8.63-2.67,10.33l0,20.1
		c0.1,9.4,4.77,14.04,8.67,16.28c4.2,2.41,8.63,2.67,10.33,2.67h3.11h0.02C359.34,161.76,363.99,157.1,366.23,153.2 M418.43,160.71
		h1.14v-55.65h-9.07v40.08l-20.42-40.08h-2.98h-6.95h-2.13v55.65h9.07v-42.02l21.41,42.02h1.99H418.43z M439.32,151.39v-15.37h14.48
		v-9.35h-14.48v-7.26l-3.27-5.04h6.92h18.85v-9.35h-32.42v0.04v9.32v37.02v4.21l3.34,5.14h29.08v-9.35H439.32z"/>
</g>
<g id="Slogan_Green_PANTONE_U" class="st0">
	<g class="st1">
		<path class="st3" d="M508.82,122.51c0-4.57,2.97-8.26,8.24-8.26c2.18,0,4.66,0.92,6.44,3.08l-2.77,2.34
			c-0.76-0.92-2.09-1.85-3.67-1.85c-2.34,0-4.3,1.73-4.3,4.68c0,2.52,1.71,4.55,4.3,4.55c1.44,0,2.81-0.77,3.67-1.82l2.77,2.36
			c-1.37,1.71-3.6,3.06-6.44,3.06C512.65,130.66,508.82,127.8,508.82,122.51z"/>
		<path class="st3" d="M532.18,119.25v3.78c-0.32-0.02-0.63-0.02-0.81-0.02c-1.67,0-2.52,1.06-2.52,2.5v4.95h-3.53v-11.01h3.53v1.49
			h0.02c0.83-1.12,1.98-1.71,3.2-1.71C532.11,119.23,532.15,119.23,532.18,119.25z"/>
		<path class="st3" d="M544.03,125.89h-7.47c0.25,1.24,1.3,1.91,2.59,1.91c1.01,0,1.91-0.45,2.66-1.33l1.87,2.09
			c-0.92,1.17-2.61,2.09-4.91,2.09c-3.26,0-5.72-2.3-5.72-5.72c0-3.33,2.36-5.72,5.58-5.72s5.49,2.34,5.49,5.63
			C544.12,125.17,544.08,125.66,544.03,125.89z M536.56,123.82l4.12-0.02c-0.22-1.08-0.95-1.76-2-1.76S536.79,122.67,536.56,123.82z
			"/>
		<path class="st3" d="M557.15,119.45v11.01h-3.33v-1.19h-0.05c-0.72,0.92-1.75,1.4-3.06,1.4c-3.04,0-5.2-2.3-5.2-5.69
			c0-3.38,2.18-5.74,5.04-5.74c1.19,0,2.25,0.47,3.04,1.4h0.02v-1.17H557.15z M553.78,124.97c0-1.51-1.01-2.61-2.32-2.61
			c-1.35,0-2.36,1.06-2.36,2.61c0,1.55,0.97,2.61,2.34,2.61C552.72,127.58,553.78,126.54,553.78,124.97z"/>
		<path class="st3" d="M559.96,126.99v-4.68h-1.24v-2.86h1.24v-3.53l3.53-0.36v3.89h2.66v2.86h-2.66v4.03
			c0,0.72,0.16,1.26,0.83,1.26c0.23,0,0.7-0.09,1.08-0.29l0.88,2.61c-0.76,0.43-1.55,0.74-3.08,0.74
			C561.31,130.66,559.96,129.49,559.96,126.99z"/>
		<path class="st3" d="M578.01,125.89h-7.47c0.25,1.24,1.3,1.91,2.59,1.91c1.01,0,1.91-0.45,2.66-1.33l1.87,2.09
			c-0.92,1.17-2.61,2.09-4.91,2.09c-3.26,0-5.72-2.3-5.72-5.72c0-3.33,2.36-5.72,5.58-5.72s5.49,2.34,5.49,5.63
			C578.1,125.17,578.05,125.66,578.01,125.89z M570.54,123.82l4.12-0.02c-0.22-1.08-0.95-1.76-2-1.76S570.76,122.67,570.54,123.82z"
			/>
		<path class="st3" d="M518.59,148.6h-5.6l-0.92,2.86h-3.94l5.85-15.98h3.6l5.9,15.98h-3.94L518.59,148.6z M517.55,145.4l-1.76-5.38
			h-0.04l-1.73,5.38H517.55z"/>
		<path class="st3" d="M535.21,140.45v11.01h-3.53v-1.24h-0.07c-0.79,0.95-1.89,1.44-3.11,1.44c-2.29,0-3.96-1.19-3.96-4.68v-6.53
			h3.51v5.65c0,1.78,0.5,2.43,1.69,2.43c1.06,0,1.94-0.83,1.94-2.63v-5.45H535.21z"/>
		<path class="st3" d="M538.02,147.99v-4.68h-1.24v-2.86h1.24v-3.53l3.53-0.36v3.89h2.66v2.86h-2.66v4.03
			c0,0.72,0.16,1.26,0.83,1.26c0.23,0,0.7-0.09,1.08-0.29l0.88,2.61c-0.76,0.43-1.55,0.74-3.08,0.74
			C539.37,151.66,538.02,150.49,538.02,147.99z"/>
		<path class="st3" d="M545.09,145.97c0-3.35,2.41-5.74,5.94-5.74c3.49,0,5.94,2.34,5.94,5.74c0,3.38-2.45,5.72-5.94,5.72
			C547.5,151.68,545.09,149.3,545.09,145.97z M553.42,145.97c0-1.53-1.01-2.59-2.39-2.59c-1.42,0-2.39,1.08-2.39,2.59
			c0,1.46,0.99,2.59,2.39,2.59C552.38,148.56,553.42,147.47,553.42,145.97z"/>
		<path class="st3" d="M576.44,145.04v6.41h-3.51v-5.6c0-1.44-0.41-2.48-1.6-2.48c-1.04,0-1.85,0.86-1.85,2.57v5.51h-3.51v-5.6
			c0-1.44-0.41-2.48-1.6-2.48c-1.1,0-1.89,0.86-1.89,2.57v5.51h-3.53v-11.01h3.53v1.24h0.04c0.83-0.97,1.96-1.46,3.08-1.46
			c1.35,0,2.48,0.47,3.15,1.6h0.04c0.9-1.06,2.21-1.6,3.71-1.6C574.84,140.23,576.44,141.58,576.44,145.04z"/>
		<path class="st3" d="M589.91,140.45v11.01h-3.33v-1.19h-0.05c-0.72,0.92-1.75,1.4-3.06,1.4c-3.04,0-5.2-2.3-5.2-5.69
			c0-3.38,2.18-5.74,5.04-5.74c1.19,0,2.25,0.47,3.04,1.4h0.02v-1.17H589.91z M586.53,145.97c0-1.51-1.01-2.61-2.32-2.61
			c-1.35,0-2.36,1.06-2.36,2.61c0,1.55,0.97,2.61,2.34,2.61C585.48,148.58,586.53,147.54,586.53,145.97z"/>
		<path class="st3" d="M592.72,147.99v-4.68h-1.24v-2.86h1.24v-3.53l3.53-0.36v3.89h2.66v2.86h-2.66v4.03
			c0,0.72,0.16,1.26,0.83,1.26c0.23,0,0.7-0.09,1.08-0.29l0.88,2.61c-0.76,0.43-1.55,0.74-3.08,0.74
			C594.07,151.66,592.72,150.49,592.72,147.99z"/>
		<path class="st3" d="M600.41,137.08c0-1.22,0.99-2.05,2.21-2.05c1.22,0,2.21,0.83,2.21,2.05s-0.99,2.05-2.21,2.05
			C601.4,139.13,600.41,138.29,600.41,137.08z M600.86,140.45h3.49v11.01h-3.49V140.45z"/>
		<path class="st3" d="M606.51,145.97c0-3.35,2.41-5.74,5.94-5.74c3.49,0,5.94,2.34,5.94,5.74c0,3.38-2.45,5.72-5.94,5.72
			C608.92,151.68,606.51,149.3,606.51,145.97z M614.84,145.97c0-1.53-1.01-2.59-2.39-2.59c-1.42,0-2.39,1.08-2.39,2.59
			c0,1.46,0.99,2.59,2.39,2.59C613.8,148.56,614.84,147.47,614.84,145.97z"/>
		<path class="st3" d="M631.2,144.86v6.59h-3.53v-5.74c0-1.8-0.56-2.34-1.76-2.34c-1.19,0-2,0.83-2,2.54v5.54h-3.53v-11.01h3.53
			v1.33c0.88-1.01,2.07-1.55,3.33-1.55C629.53,140.23,631.2,141.38,631.2,144.86z"/>
	</g>
</g>
<g id="Logo_Green_PANTONE_U" class="st0">
	<path class="st4" d="M203.06,160.74h29.13v-9.35h-22.5v-46.33h-9.92v46.33v4.3L203.06,160.74z M268.54,142.87
		c0,3.69-1.3,9.89-10.04,10h-3.06c-3.69,0-9.91-1.31-10-10v-20.05c0-3.69,1.3-9.91,10-10h3.1c3.7,0,9.91,1.31,10,10V142.87z
		 M274.87,153.2c2.42-4.2,2.68-8.63,2.68-10.33v-20.1c-0.1-9.4-4.77-14.04-8.67-16.28c-4.2-2.41-8.63-2.67-10.33-2.67h-3.15
		c-9.4,0.1-14.04,4.77-16.28,8.67c-2.41,4.2-2.67,8.63-2.67,10.33v20.1c0.1,9.4,4.77,14.04,8.67,16.28
		c4.2,2.41,8.63,2.67,10.33,2.67h3.11h0.02C267.98,161.76,272.63,157.1,274.87,153.2 M308.23,132.93l-18.1-27.87h-11.11l18.1,27.87
		l-18.1,27.87h11.11L308.23,132.93z M310.72,129.1l15.61-24.04h-11.11l-10.06,15.49L310.72,129.1z M315.22,160.8h11.11l-15.61-24.04
		l-5.55,8.55L315.22,160.8z M359.9,142.87c0,3.69-1.31,9.89-10.04,10h-3.06c-3.7,0-9.91-1.31-10-10v-20.05c0-3.69,1.31-9.91,10-10
		h3.1c3.69,0,9.91,1.31,10,10V142.87z M366.23,153.2c2.42-4.2,2.68-8.63,2.68-10.33v-20.1c-0.1-9.4-4.77-14.04-8.67-16.28
		c-4.2-2.41-8.63-2.67-10.33-2.67h-3.15c-9.4,0.1-14.04,4.77-16.28,8.67c-2.41,4.2-2.67,8.63-2.67,10.33l0,20.1
		c0.1,9.4,4.77,14.04,8.67,16.28c4.2,2.41,8.63,2.67,10.33,2.67h3.11h0.02C359.34,161.76,363.99,157.1,366.23,153.2 M418.43,160.71
		h1.14v-55.65h-9.07v40.08l-20.42-40.08h-2.98h-6.95h-2.13v55.65h9.07v-42.02l21.41,42.02h1.99H418.43z M439.32,151.39v-15.37h14.48
		v-9.35h-14.48v-7.26l-3.27-5.04h6.92h18.85v-9.35h-32.42v0.04v9.32v37.02v4.21l3.34,5.14h29.08v-9.35H439.32z"/>
</g>
<g id="Slogan_Black" class="st0">
	<g class="st1">
		<path d="M508.82,122.51c0-4.57,2.97-8.26,8.24-8.26c2.18,0,4.66,0.92,6.44,3.08l-2.77,2.34c-0.76-0.92-2.09-1.85-3.67-1.85
			c-2.34,0-4.3,1.73-4.3,4.68c0,2.52,1.71,4.55,4.3,4.55c1.44,0,2.81-0.77,3.67-1.82l2.77,2.36c-1.37,1.71-3.6,3.06-6.44,3.06
			C512.65,130.66,508.82,127.8,508.82,122.51z"/>
		<path d="M532.18,119.25v3.78c-0.32-0.02-0.63-0.02-0.81-0.02c-1.67,0-2.52,1.06-2.52,2.5v4.95h-3.53v-11.01h3.53v1.49h0.02
			c0.83-1.12,1.98-1.71,3.2-1.71C532.11,119.23,532.15,119.23,532.18,119.25z"/>
		<path d="M544.03,125.89h-7.47c0.25,1.24,1.3,1.91,2.59,1.91c1.01,0,1.91-0.45,2.66-1.33l1.87,2.09c-0.92,1.17-2.61,2.09-4.91,2.09
			c-3.26,0-5.72-2.3-5.72-5.72c0-3.33,2.36-5.72,5.58-5.72s5.49,2.34,5.49,5.63C544.12,125.17,544.08,125.66,544.03,125.89z
			 M536.56,123.82l4.12-0.02c-0.22-1.08-0.95-1.76-2-1.76S536.79,122.67,536.56,123.82z"/>
		<path d="M557.15,119.45v11.01h-3.33v-1.19h-0.05c-0.72,0.92-1.75,1.4-3.06,1.4c-3.04,0-5.2-2.3-5.2-5.69
			c0-3.38,2.18-5.74,5.04-5.74c1.19,0,2.25,0.47,3.04,1.4h0.02v-1.17H557.15z M553.78,124.97c0-1.51-1.01-2.61-2.32-2.61
			c-1.35,0-2.36,1.06-2.36,2.61c0,1.55,0.97,2.61,2.34,2.61C552.72,127.58,553.78,126.54,553.78,124.97z"/>
		<path d="M559.96,126.99v-4.68h-1.24v-2.86h1.24v-3.53l3.53-0.36v3.89h2.66v2.86h-2.66v4.03c0,0.72,0.16,1.26,0.83,1.26
			c0.23,0,0.7-0.09,1.08-0.29l0.88,2.61c-0.76,0.43-1.55,0.74-3.08,0.74C561.31,130.66,559.96,129.49,559.96,126.99z"/>
		<path d="M578.01,125.89h-7.47c0.25,1.24,1.3,1.91,2.59,1.91c1.01,0,1.91-0.45,2.66-1.33l1.87,2.09c-0.92,1.17-2.61,2.09-4.91,2.09
			c-3.26,0-5.72-2.3-5.72-5.72c0-3.33,2.36-5.72,5.58-5.72s5.49,2.34,5.49,5.63C578.1,125.17,578.05,125.66,578.01,125.89z
			 M570.54,123.82l4.12-0.02c-0.22-1.08-0.95-1.76-2-1.76S570.76,122.67,570.54,123.82z"/>
		<path d="M518.59,148.6h-5.6l-0.92,2.86h-3.94l5.85-15.98h3.6l5.9,15.98h-3.94L518.59,148.6z M517.55,145.4l-1.76-5.38h-0.04
			l-1.73,5.38H517.55z"/>
		<path d="M535.21,140.45v11.01h-3.53v-1.24h-0.07c-0.79,0.95-1.89,1.44-3.11,1.44c-2.29,0-3.96-1.19-3.96-4.68v-6.53h3.51v5.65
			c0,1.78,0.5,2.43,1.69,2.43c1.06,0,1.94-0.83,1.94-2.63v-5.45H535.21z"/>
		<path d="M538.02,147.99v-4.68h-1.24v-2.86h1.24v-3.53l3.53-0.36v3.89h2.66v2.86h-2.66v4.03c0,0.72,0.16,1.26,0.83,1.26
			c0.23,0,0.7-0.09,1.08-0.29l0.88,2.61c-0.76,0.43-1.55,0.74-3.08,0.74C539.37,151.66,538.02,150.49,538.02,147.99z"/>
		<path d="M545.09,145.97c0-3.35,2.41-5.74,5.94-5.74c3.49,0,5.94,2.34,5.94,5.74c0,3.38-2.45,5.72-5.94,5.72
			C547.5,151.68,545.09,149.3,545.09,145.97z M553.42,145.97c0-1.53-1.01-2.59-2.39-2.59c-1.42,0-2.39,1.08-2.39,2.59
			c0,1.46,0.99,2.59,2.39,2.59C552.38,148.56,553.42,147.47,553.42,145.97z"/>
		<path d="M576.44,145.04v6.41h-3.51v-5.6c0-1.44-0.41-2.48-1.6-2.48c-1.04,0-1.85,0.86-1.85,2.57v5.51h-3.51v-5.6
			c0-1.44-0.41-2.48-1.6-2.48c-1.1,0-1.89,0.86-1.89,2.57v5.51h-3.53v-11.01h3.53v1.24h0.04c0.83-0.97,1.96-1.46,3.08-1.46
			c1.35,0,2.48,0.47,3.15,1.6h0.04c0.9-1.06,2.21-1.6,3.71-1.6C574.84,140.23,576.44,141.58,576.44,145.04z"/>
		<path d="M589.91,140.45v11.01h-3.33v-1.19h-0.05c-0.72,0.92-1.75,1.4-3.06,1.4c-3.04,0-5.2-2.3-5.2-5.69
			c0-3.38,2.18-5.74,5.04-5.74c1.19,0,2.25,0.47,3.04,1.4h0.02v-1.17H589.91z M586.53,145.97c0-1.51-1.01-2.61-2.32-2.61
			c-1.35,0-2.36,1.06-2.36,2.61c0,1.55,0.97,2.61,2.34,2.61C585.48,148.58,586.53,147.54,586.53,145.97z"/>
		<path d="M592.72,147.99v-4.68h-1.24v-2.86h1.24v-3.53l3.53-0.36v3.89h2.66v2.86h-2.66v4.03c0,0.72,0.16,1.26,0.83,1.26
			c0.23,0,0.7-0.09,1.08-0.29l0.88,2.61c-0.76,0.43-1.55,0.74-3.08,0.74C594.07,151.66,592.72,150.49,592.72,147.99z"/>
		<path d="M600.41,137.08c0-1.22,0.99-2.05,2.21-2.05c1.22,0,2.21,0.83,2.21,2.05s-0.99,2.05-2.21,2.05
			C601.4,139.13,600.41,138.29,600.41,137.08z M600.86,140.45h3.49v11.01h-3.49V140.45z"/>
		<path d="M606.51,145.97c0-3.35,2.41-5.74,5.94-5.74c3.49,0,5.94,2.34,5.94,5.74c0,3.38-2.45,5.72-5.94,5.72
			C608.92,151.68,606.51,149.3,606.51,145.97z M614.84,145.97c0-1.53-1.01-2.59-2.39-2.59c-1.42,0-2.39,1.08-2.39,2.59
			c0,1.46,0.99,2.59,2.39,2.59C613.8,148.56,614.84,147.47,614.84,145.97z"/>
		<path d="M631.2,144.86v6.59h-3.53v-5.74c0-1.8-0.56-2.34-1.76-2.34c-1.19,0-2,0.83-2,2.54v5.54h-3.53v-11.01h3.53v1.33
			c0.88-1.01,2.07-1.55,3.33-1.55C629.53,140.23,631.2,141.38,631.2,144.86z"/>
	</g>
</g>
<g id="Logo_Black" class="st0">
	<path class="st1" d="M203.06,160.74h29.13v-9.35h-22.5v-46.33h-9.92v46.33v4.3L203.06,160.74z M268.54,142.87
		c0,3.69-1.3,9.89-10.04,10h-3.06c-3.69,0-9.91-1.31-10-10v-20.05c0-3.69,1.3-9.91,10-10h3.1c3.7,0,9.91,1.31,10,10V142.87z
		 M274.87,153.2c2.42-4.2,2.68-8.63,2.68-10.33v-20.1c-0.1-9.4-4.77-14.04-8.67-16.28c-4.2-2.41-8.63-2.67-10.33-2.67h-3.15
		c-9.4,0.1-14.04,4.77-16.28,8.67c-2.41,4.2-2.67,8.63-2.67,10.33v20.1c0.1,9.4,4.77,14.04,8.67,16.28
		c4.2,2.41,8.63,2.67,10.33,2.67h3.11h0.02C267.98,161.76,272.63,157.1,274.87,153.2 M308.23,132.93l-18.1-27.87h-11.11l18.1,27.87
		l-18.1,27.87h11.11L308.23,132.93z M310.72,129.1l15.61-24.04h-11.11l-10.06,15.49L310.72,129.1z M315.22,160.8h11.11l-15.61-24.04
		l-5.55,8.55L315.22,160.8z M359.9,142.87c0,3.69-1.31,9.89-10.04,10h-3.06c-3.7,0-9.91-1.31-10-10v-20.05c0-3.69,1.31-9.91,10-10
		h3.1c3.69,0,9.91,1.31,10,10V142.87z M366.23,153.2c2.42-4.2,2.68-8.63,2.68-10.33v-20.1c-0.1-9.4-4.77-14.04-8.67-16.28
		c-4.2-2.41-8.63-2.67-10.33-2.67h-3.15c-9.4,0.1-14.04,4.77-16.28,8.67c-2.41,4.2-2.67,8.63-2.67,10.33l0,20.1
		c0.1,9.4,4.77,14.04,8.67,16.28c4.2,2.41,8.63,2.67,10.33,2.67h3.11h0.02C359.34,161.76,363.99,157.1,366.23,153.2 M418.43,160.71
		h1.14v-55.65h-9.07v40.08l-20.42-40.08h-2.98h-6.95h-2.13v55.65h9.07v-42.02l21.41,42.02h1.99H418.43z M439.32,151.39v-15.37h14.48
		v-9.35h-14.48v-7.26l-3.27-5.04h6.92h18.85v-9.35h-32.42v0.04v9.32v37.02v4.21l3.34,5.14h29.08v-9.35H439.32z"/>
</g>
<g id="Slogan_White" class="st0">
	<g class="st1">
		<path class="st5" d="M508.82,122.51c0-4.57,2.97-8.26,8.24-8.26c2.18,0,4.66,0.92,6.44,3.08l-2.77,2.34
			c-0.76-0.92-2.09-1.85-3.67-1.85c-2.34,0-4.3,1.73-4.3,4.68c0,2.52,1.71,4.55,4.3,4.55c1.44,0,2.81-0.77,3.67-1.82l2.77,2.36
			c-1.37,1.71-3.6,3.06-6.44,3.06C512.65,130.66,508.82,127.8,508.82,122.51z"/>
		<path class="st5" d="M532.18,119.25v3.78c-0.32-0.02-0.63-0.02-0.81-0.02c-1.67,0-2.52,1.06-2.52,2.5v4.95h-3.53v-11.01h3.53v1.49
			h0.02c0.83-1.12,1.98-1.71,3.2-1.71C532.11,119.23,532.15,119.23,532.18,119.25z"/>
		<path class="st5" d="M544.03,125.89h-7.47c0.25,1.24,1.3,1.91,2.59,1.91c1.01,0,1.91-0.45,2.66-1.33l1.87,2.09
			c-0.92,1.17-2.61,2.09-4.91,2.09c-3.26,0-5.72-2.3-5.72-5.72c0-3.33,2.36-5.72,5.58-5.72s5.49,2.34,5.49,5.63
			C544.12,125.17,544.08,125.66,544.03,125.89z M536.56,123.82l4.12-0.02c-0.22-1.08-0.95-1.76-2-1.76S536.79,122.67,536.56,123.82z
			"/>
		<path class="st5" d="M557.15,119.45v11.01h-3.33v-1.19h-0.05c-0.72,0.92-1.75,1.4-3.06,1.4c-3.04,0-5.2-2.3-5.2-5.69
			c0-3.38,2.18-5.74,5.04-5.74c1.19,0,2.25,0.47,3.04,1.4h0.02v-1.17H557.15z M553.78,124.97c0-1.51-1.01-2.61-2.32-2.61
			c-1.35,0-2.36,1.06-2.36,2.61c0,1.55,0.97,2.61,2.34,2.61C552.72,127.58,553.78,126.54,553.78,124.97z"/>
		<path class="st5" d="M559.96,126.99v-4.68h-1.24v-2.86h1.24v-3.53l3.53-0.36v3.89h2.66v2.86h-2.66v4.03
			c0,0.72,0.16,1.26,0.83,1.26c0.23,0,0.7-0.09,1.08-0.29l0.88,2.61c-0.76,0.43-1.55,0.74-3.08,0.74
			C561.31,130.66,559.96,129.49,559.96,126.99z"/>
		<path class="st5" d="M578.01,125.89h-7.47c0.25,1.24,1.3,1.91,2.59,1.91c1.01,0,1.91-0.45,2.66-1.33l1.87,2.09
			c-0.92,1.17-2.61,2.09-4.91,2.09c-3.26,0-5.72-2.3-5.72-5.72c0-3.33,2.36-5.72,5.58-5.72s5.49,2.34,5.49,5.63
			C578.1,125.17,578.05,125.66,578.01,125.89z M570.54,123.82l4.12-0.02c-0.22-1.08-0.95-1.76-2-1.76S570.76,122.67,570.54,123.82z"
			/>
		<path class="st5" d="M518.59,148.6h-5.6l-0.92,2.86h-3.94l5.85-15.98h3.6l5.9,15.98h-3.94L518.59,148.6z M517.55,145.4l-1.76-5.38
			h-0.04l-1.73,5.38H517.55z"/>
		<path class="st5" d="M535.21,140.45v11.01h-3.53v-1.24h-0.07c-0.79,0.95-1.89,1.44-3.11,1.44c-2.29,0-3.96-1.19-3.96-4.68v-6.53
			h3.51v5.65c0,1.78,0.5,2.43,1.69,2.43c1.06,0,1.94-0.83,1.94-2.63v-5.45H535.21z"/>
		<path class="st5" d="M538.02,147.99v-4.68h-1.24v-2.86h1.24v-3.53l3.53-0.36v3.89h2.66v2.86h-2.66v4.03
			c0,0.72,0.16,1.26,0.83,1.26c0.23,0,0.7-0.09,1.08-0.29l0.88,2.61c-0.76,0.43-1.55,0.74-3.08,0.74
			C539.37,151.66,538.02,150.49,538.02,147.99z"/>
		<path class="st5" d="M545.09,145.97c0-3.35,2.41-5.74,5.94-5.74c3.49,0,5.94,2.34,5.94,5.74c0,3.38-2.45,5.72-5.94,5.72
			C547.5,151.68,545.09,149.3,545.09,145.97z M553.42,145.97c0-1.53-1.01-2.59-2.39-2.59c-1.42,0-2.39,1.08-2.39,2.59
			c0,1.46,0.99,2.59,2.39,2.59C552.38,148.56,553.42,147.47,553.42,145.97z"/>
		<path class="st5" d="M576.44,145.04v6.41h-3.51v-5.6c0-1.44-0.41-2.48-1.6-2.48c-1.04,0-1.85,0.86-1.85,2.57v5.51h-3.51v-5.6
			c0-1.44-0.41-2.48-1.6-2.48c-1.1,0-1.89,0.86-1.89,2.57v5.51h-3.53v-11.01h3.53v1.24h0.04c0.83-0.97,1.96-1.46,3.08-1.46
			c1.35,0,2.48,0.47,3.15,1.6h0.04c0.9-1.06,2.21-1.6,3.71-1.6C574.84,140.23,576.44,141.58,576.44,145.04z"/>
		<path class="st5" d="M589.91,140.45v11.01h-3.33v-1.19h-0.05c-0.72,0.92-1.75,1.4-3.06,1.4c-3.04,0-5.2-2.3-5.2-5.69
			c0-3.38,2.18-5.74,5.04-5.74c1.19,0,2.25,0.47,3.04,1.4h0.02v-1.17H589.91z M586.53,145.97c0-1.51-1.01-2.61-2.32-2.61
			c-1.35,0-2.36,1.06-2.36,2.61c0,1.55,0.97,2.61,2.34,2.61C585.48,148.58,586.53,147.54,586.53,145.97z"/>
		<path class="st5" d="M592.72,147.99v-4.68h-1.24v-2.86h1.24v-3.53l3.53-0.36v3.89h2.66v2.86h-2.66v4.03
			c0,0.72,0.16,1.26,0.83,1.26c0.23,0,0.7-0.09,1.08-0.29l0.88,2.61c-0.76,0.43-1.55,0.74-3.08,0.74
			C594.07,151.66,592.72,150.49,592.72,147.99z"/>
		<path class="st5" d="M600.41,137.08c0-1.22,0.99-2.05,2.21-2.05c1.22,0,2.21,0.83,2.21,2.05s-0.99,2.05-2.21,2.05
			C601.4,139.13,600.41,138.29,600.41,137.08z M600.86,140.45h3.49v11.01h-3.49V140.45z"/>
		<path class="st5" d="M606.51,145.97c0-3.35,2.41-5.74,5.94-5.74c3.49,0,5.94,2.34,5.94,5.74c0,3.38-2.45,5.72-5.94,5.72
			C608.92,151.68,606.51,149.3,606.51,145.97z M614.84,145.97c0-1.53-1.01-2.59-2.39-2.59c-1.42,0-2.39,1.08-2.39,2.59
			c0,1.46,0.99,2.59,2.39,2.59C613.8,148.56,614.84,147.47,614.84,145.97z"/>
		<path class="st5" d="M631.2,144.86v6.59h-3.53v-5.74c0-1.8-0.56-2.34-1.76-2.34c-1.19,0-2,0.83-2,2.54v5.54h-3.53v-11.01h3.53
			v1.33c0.88-1.01,2.07-1.55,3.33-1.55C629.53,140.23,631.2,141.38,631.2,144.86z"/>
	</g>
</g>
<g id="Logo_White" class="st0">
	<path class="st6" d="M203.06,160.74h29.13v-9.35h-22.5v-46.33h-9.92v46.33v4.3L203.06,160.74z M268.54,142.87
		c0,3.69-1.3,9.89-10.04,10h-3.06c-3.69,0-9.91-1.31-10-10v-20.05c0-3.69,1.3-9.91,10-10h3.1c3.7,0,9.91,1.31,10,10V142.87z
		 M274.87,153.2c2.42-4.2,2.68-8.63,2.68-10.33v-20.1c-0.1-9.4-4.77-14.04-8.67-16.28c-4.2-2.41-8.63-2.67-10.33-2.67h-3.15
		c-9.4,0.1-14.04,4.77-16.28,8.67c-2.41,4.2-2.67,8.63-2.67,10.33v20.1c0.1,9.4,4.77,14.04,8.67,16.28
		c4.2,2.41,8.63,2.67,10.33,2.67h3.11h0.02C267.98,161.76,272.63,157.1,274.87,153.2 M308.23,132.93l-18.1-27.87h-11.11l18.1,27.87
		l-18.1,27.87h11.11L308.23,132.93z M310.72,129.1l15.61-24.04h-11.11l-10.06,15.49L310.72,129.1z M315.22,160.8h11.11l-15.61-24.04
		l-5.55,8.55L315.22,160.8z M359.9,142.87c0,3.69-1.31,9.89-10.04,10h-3.06c-3.7,0-9.91-1.31-10-10v-20.05c0-3.69,1.31-9.91,10-10
		h3.1c3.69,0,9.91,1.31,10,10V142.87z M366.23,153.2c2.42-4.2,2.68-8.63,2.68-10.33v-20.1c-0.1-9.4-4.77-14.04-8.67-16.28
		c-4.2-2.41-8.63-2.67-10.33-2.67h-3.15c-9.4,0.1-14.04,4.77-16.28,8.67c-2.41,4.2-2.67,8.63-2.67,10.33l0,20.1
		c0.1,9.4,4.77,14.04,8.67,16.28c4.2,2.41,8.63,2.67,10.33,2.67h3.11h0.02C359.34,161.76,363.99,157.1,366.23,153.2 M418.43,160.71
		h1.14v-55.65h-9.07v40.08l-20.42-40.08h-2.98h-6.95h-2.13v55.65h9.07v-42.02l21.41,42.02h1.99H418.43z M439.32,151.39v-15.37h14.48
		v-9.35h-14.48v-7.26l-3.27-5.04h6.92h18.85v-9.35h-32.42v0.04v9.32v37.02v4.21l3.34,5.14h29.08v-9.35H439.32z"/>
</g>
</svg>
